<svg xmlns="http://www.w3.org/2000/svg" width="72" height="72" fill="none"><path stroke="#0F0B08" stroke-linecap="round" stroke-linejoin="round" stroke-width="1.5" d="M36 70.99s12.498-6.875 12.498-25.254c0-14.373-7.67-21.728-10.995-24.234a2.5 2.5 0 0 0-3.006 0c-3.324 2.506-10.995 9.849-10.995 24.234C23.502 64.116 36 70.99 36 70.99Z"/><path stroke="#0F0B08" stroke-linecap="round" stroke-linejoin="round" stroke-width="1.5" d="M25.567 33.745c-4.162-3.374-8.137-4.69-10.499-5.193a2.561 2.561 0 0 0-2.974 1.725c-1.213 3.75-2.744 12.392 3.471 23.206S32.147 70.168 35.99 70.98m10.446-37.235c4.162-3.38 8.124-4.687 10.486-5.193a2.561 2.561 0 0 1 2.975 1.725c1.212 3.75 2.743 12.392-3.472 23.206C50.211 64.297 39.843 70.168 36 70.99"/><path stroke="#0F0B08" stroke-linecap="round" stroke-linejoin="round" stroke-width="1.5" d="M36 70.99c4.803 0 12.739-.057 21.872-5.512 9.133-5.456 12.089-12.292 13.036-15.792a2.48 2.48 0 0 0-1.706-3.056 21.744 21.744 0 0 0-9.63-.2m-47.144 0a21.744 21.744 0 0 0-9.63.2 2.481 2.481 0 0 0-1.706 3.056c.938 3.5 3.903 10.333 13.036 15.792C23.261 70.936 31.198 70.99 36 70.99"/></svg>