<svg xmlns="http://www.w3.org/2000/svg" width="60" height="60" fill="none"><g fill="#0F0B08" clip-path="url(#a)"><path d="M40.68 18.685c6.044 0 18.54 10.337 19.068 10.78a.703.703 0 0 1 .255.535c0 .204-.094.4-.255.535-.528.442-13.024 10.78-19.068 10.78V39.92c4.811 0 14.851-7.787 17.52-9.921-2.669-2.134-12.709-9.92-17.52-9.92v-1.395ZM19.323 20.08c-4.812 0-14.851 7.786-17.52 9.92 2.66 2.134 12.708 9.92 17.52 9.92v1.395c-6.044 0-18.54-10.337-19.068-10.78A.703.703 0 0 1 0 30c0-.204.094-.4.255-.536.527-.442 13.024-10.779 19.068-10.779v1.394Z"/><path d="M29.54 14.443c4.275-4.276 20.419-5.798 21.107-5.857a.704.704 0 0 1 .757.756c-.06.689-1.582 16.832-5.858 21.108l-.986-.986c3.4-3.4 4.999-16.007 5.373-19.399-3.392.374-16.007 1.972-19.408 5.373l-.986-.995ZM15.428 30.535c-3.4 3.4-4.998 16.008-5.372 19.408 3.392-.374 15.999-1.972 19.399-5.372l.986.986c-4.276 4.276-20.42 5.797-21.108 5.857a.704.704 0 0 1-.756-.757c.06-.688 1.58-16.832 5.857-21.108l.994.986Z"/><path d="M18.676 19.323c0-6.044 10.337-18.54 10.78-19.068A.703.703 0 0 1 29.99 0c.204 0 .4.094.535.255.442.527 10.78 13.024 10.78 19.068H39.91c0-4.812-7.787-14.851-9.92-17.52-2.134 2.669-9.921 12.708-9.921 17.52h-1.394Zm1.394 21.354c0 4.812 7.787 14.852 9.92 17.52 2.134-2.669 9.921-12.708 9.921-17.52h1.395c0 6.044-10.338 18.541-10.78 19.068a.703.703 0 0 1-.535.255.703.703 0 0 1-.536-.255c-.442-.527-10.78-13.023-10.78-19.068h1.395Z"/><path d="M14.442 30.45c-4.276-4.276-5.798-20.419-5.858-21.108a.704.704 0 0 1 .757-.756c.689.06 16.832 1.581 21.108 5.857l-.986.986c-3.4-3.4-16.008-4.998-19.4-5.373.375 3.392 1.973 16.008 5.373 19.408l-.994.986Zm16.083 14.112c3.4 3.4 16.008 4.999 19.408 5.373-.374-3.392-1.972-16-5.373-19.4l.986-.986c4.276 4.276 5.798 20.42 5.858 21.108a.704.704 0 0 1-.757.757c-.688-.06-16.832-1.581-21.108-5.857l.986-.995Z"/><path d="M30.168 45.591c-8.586 0-15.574-6.988-15.574-15.574 0-8.586 6.988-15.574 15.574-15.574 8.586 0 15.574 6.988 15.574 15.574 0 8.586-6.988 15.574-15.574 15.574Zm0-29.745c-7.813 0-14.18 6.359-14.18 14.18 0 7.82 6.359 14.18 14.18 14.18 7.812 0 14.18-6.36 14.18-14.18 0-7.821-6.36-14.18-14.18-14.18Z"/><path stroke="#0F0B08" d="M30.169 26.938a3.094 3.094 0 0 1 3.087 3.088 3.086 3.086 0 0 1-3.087 3.078 3.084 3.084 0 0 1-3.08-3.078 3.087 3.087 0 0 1 3.08-3.088Zm0 .395a2.691 2.691 0 0 0-2.685 2.693 2.684 2.684 0 0 0 2.685 2.684 2.692 2.692 0 0 0 2.693-2.684 2.693 2.693 0 0 0-2.693-2.694Z"/></g><defs><clipPath id="a"><path fill="#fff" d="M0 0h60v60H0z"/></clipPath></defs></svg>