<svg xmlns="http://www.w3.org/2000/svg" width="60" height="60" fill="none"><path stroke="#0F0B08" stroke-width="1.2" d="M40.417 5.586c8.019 0 14.52 6.502 14.52 14.52 0 8.02-6.501 14.52-14.52 14.52-8.019 0-14.52-6.5-14.52-14.52 0-8.019 6.501-14.52 14.52-14.52Z"/><path stroke="#0F0B08" stroke-width="1.2" d="M27.843.6c8.019 0 14.52 6.501 14.52 14.52 0 8.019-6.502 14.52-14.52 14.52-8.02 0-14.52-6.501-14.52-14.52 0-8.019 6.5-14.52 14.52-14.52Z"/><path stroke="#0F0B08" stroke-width="1.2" d="M42.327 21.92c8.019 0 14.52 6.502 14.52 14.52 0 8.02-6.501 14.52-14.52 14.52-8.019 0-14.52-6.5-14.52-14.52 0-8.018 6.501-14.52 14.52-14.52Z"/><path stroke="#0F0B08" stroke-width="1.2" d="M31.19 29.964c8.02 0 14.52 6.502 14.52 14.52 0 8.02-6.5 14.52-14.52 14.52-8.018 0-14.52-6.5-14.52-14.52 0-8.018 6.501-14.52 14.52-14.52Z"/><path stroke="#0F0B08" stroke-width="1.2" d="M17.01 23.732c8.02 0 14.52 6.502 14.52 14.52 0 8.02-6.5 14.52-14.52 14.52-8.018 0-14.52-6.5-14.52-14.52 0-8.019 6.502-14.52 14.52-14.52Z"/><path stroke="#0F0B08" stroke-width="1.2" d="M15.12 10.472c8.019 0 14.52 6.501 14.52 14.52 0 8.019-6.501 14.52-14.52 14.52C7.101 39.512.6 33.01.6 24.992c0-8.019 6.501-14.52 14.52-14.52Z"/></svg>