<svg xmlns="http://www.w3.org/2000/svg" width="60" height="60" fill="none"><g fill="#0F0B08" clip-path="url(#a)"><path stroke="#0F0B08" d="M29.959.5c.078 0 .126.029.143.046a.33.33 0 0 1 .063.092c.01.023.009.034.009.034v.212c.035.712.425 2.946 3.52 4.957l.354.221c1.89 1.144 3.24 2.554 4.15 4.31v.003c.02.04.025.098.005.146a.206.206 0 0 1-.124.105c-2.046.66-3.92 1.974-5.717 3.976l-.148.148a18.231 18.231 0 0 0-2.11 2.533l-.008.012-.007.013c-.018.029-.055.056-.117.056a.165.165 0 0 1-.139-.07l-.003-.004-.331-.46a18.47 18.47 0 0 0-1.413-1.682l-.34-.348-.14-.148c-1.818-2.018-3.7-3.347-5.775-3.998h-.004l-.033-.015a.153.153 0 0 1-.067-.077l-.003-.007a.187.187 0 0 1 .005-.148l.002-.003c.917-1.78 2.267-3.198 4.163-4.34l.002-.002c3.843-2.321 3.893-5.034 3.873-5.378h.002a.205.205 0 0 1 .046-.138c.017-.017.064-.046.142-.046Zm-.424 2.418c-.524 1.026-1.53 2.293-3.448 3.45v.001c-1.558.942-2.765 2.091-3.636 3.493l-.313.505.551.223c1.67.674 3.298 1.834 4.848 3.468l-.125.114.335.371.334.371.144-.13c.315.325.806.856 1.35 1.564l.398.515.395-.515c.714-.93 1.338-1.554 1.61-1.835l.007-.007.006-.008c1.726-1.92 3.48-3.202 5.266-3.933l.549-.226-.315-.503c-.871-1.394-2.069-2.526-3.617-3.467h-.002c-1.919-1.159-2.923-2.417-3.446-3.45l-.445-.875-.446.874Z"/><path d="M10.466 22.628a.673.673 0 0 1-.255-.05.699.699 0 0 1-.388-.42c-.642-1.994-.684-4.055-.123-6.296 1.046-4.228-.833-5.983-.915-6.057a.662.662 0 0 1-.223-.495c0-.19.066-.37.198-.494.132-.132.338-.198.52-.214.189.008.379.074.502.214.066.074 1.821 1.953 6.049.906 2.233-.552 4.285-.51 6.271.116.19.057.346.198.42.387a.685.685 0 0 1-.024.569c-.94 1.83-1.335 4.005-1.195 6.642v.222c0 .454.008 1.657.28 3.165a.682.682 0 0 1-.783.791 17.533 17.533 0 0 0-3.123-.272h-.23c-2.663-.14-4.838.256-6.668 1.203a.614.614 0 0 1-.313.083Zm.528-11.604c.387 1.195.568 2.893.008 5.151-.42 1.714-.462 3.296-.107 4.813 1.887-.808 4.07-1.138 6.617-1.006.511 0 1.426.009 2.588.157-.157-1.179-.157-2.085-.157-2.472-.14-2.679.19-4.863.99-6.742-1.509-.346-3.083-.313-4.789.116-2.258.552-3.955.37-5.15-.017Z"/><path stroke="#0F0B08" d="M10.385 21.801a.183.183 0 0 1 .15-.003.185.185 0 0 1 .08.076l.022.045c.62 1.925 1.826 3.698 3.626 5.397l.368.34.147.14a18.524 18.524 0 0 0 2.515 2.099l.003.002c.041.028.07.078.07.14 0 .06-.029.11-.07.138l-.004.003a18.332 18.332 0 0 0-2.48 2.074l-.148.14c-2 1.798-3.364 3.74-4.008 5.784v.005a.154.154 0 0 1-.084.095l-.03.008a.323.323 0 0 1-.052.004.2.2 0 0 1-.086-.02c-1.78-.918-3.196-2.267-4.339-4.163v-.001C3.788 30.337 1.137 30.215.708 30.23v-.002c-.093 0-.142-.028-.161-.046a.197.197 0 0 1-.048-.13.279.279 0 0 1 .037-.133.107.107 0 0 1 .008-.01.399.399 0 0 1 .105-.067c.04-.016.057-.015.051-.015h.077c.032 0 .074 0 .125-.003.102-.006.238-.02.404-.048a4.989 4.989 0 0 0 1.289-.417c1.03-.488 2.305-1.467 3.477-3.407v-.001c1.135-1.89 2.553-3.239 4.31-4.149h.002Zm-.547.707c-1.394.872-2.526 2.07-3.467 3.617v.002c-1.158 1.92-2.417 2.923-3.45 3.447l-.875.444.875.447c1.026.525 2.293 1.53 3.45 3.448.943 1.56 2.092 2.756 3.491 3.634l.505.317.225-.553c.682-1.68 1.837-3.31 3.475-4.852l.116.128.37-.334.372-.334-.13-.145c.325-.315.856-.805 1.563-1.35l.514-.395-.513-.397c-.925-.716-1.56-1.335-1.837-1.603l-.005-.006-.007-.006-.354-.325c-1.727-1.628-2.904-3.268-3.59-4.948l-.224-.55-.504.314Z"/><path d="M17.2 30.703a.675.675 0 0 1-.387-.123 19.111 19.111 0 0 1-2.637-2.2l.338-.61-.453.502c-2.118-1.903-3.552-3.964-4.244-6.123a.682.682 0 0 1 .33-.807c2.06-1.063 4.466-1.508 7.367-1.36a19.3 19.3 0 0 1 3.519.297c.28.049.494.263.543.543.355 1.937 1.014 3.676 1.97 5.192.206.33.453.643.75.973.173.19.223.47.124.717a.688.688 0 0 1-.594.42 5.896 5.896 0 0 0-1.17.157c-1.747.395-3.453 1.17-5.085 2.307a.658.658 0 0 1-.37.115Zm-2.233-3.428.157.148a17.674 17.674 0 0 0 2.085 1.78c1.656-1.087 3.387-1.845 5.159-2.241.05-.008.107-.025.156-.033-.041-.058-.082-.124-.123-.181-.965-1.533-1.657-3.28-2.06-5.2a17.653 17.653 0 0 0-2.67-.198h-.231c-2.407-.124-4.418.181-6.14.956.684 1.73 1.887 3.362 3.667 4.97ZM9.306 51.446a.647.647 0 0 1-.478-.198.723.723 0 0 1-.214-.52.704.704 0 0 1 .214-.502c.074-.066 1.953-1.821.907-6.049-.553-2.233-.511-4.285.115-6.271a.655.655 0 0 1 .387-.42.685.685 0 0 1 .569.024c1.838.948 4.013 1.344 6.642 1.195h.223c.453 0 1.656-.008 3.172-.28a.682.682 0 0 1 .791.791 17.48 17.48 0 0 0-.271 3.123v.231c-.14 2.654.255 4.83 1.203 6.667.09.173.099.387.024.569a.698.698 0 0 1-.42.387c-1.994.643-4.054.684-6.296.132-4.228-1.047-5.983.832-6.049.915a.658.658 0 0 1-.486.222c-.016-.016-.025-.016-.033-.016Zm4.162-2.802c.8 0 1.697.099 2.72.354 1.713.42 3.296.462 4.812.107-.808-1.887-1.137-4.063-1.006-6.617 0-.511.009-1.426.157-2.588-1.187.157-2.093.157-2.48.157-2.67.132-4.854-.19-6.741-.99-.347 1.509-.305 3.083.115 4.789.56 2.266.379 3.956-.008 5.15a7.837 7.837 0 0 1 2.43-.362Z"/><path stroke="#0F0B08" d="M30.03 42.634c.06 0 .11.029.138.07l.003.004a18.31 18.31 0 0 0 2.084 2.49l.14.148c1.818 2.018 3.7 3.347 5.775 3.998h.004a.17.17 0 0 1 .085.062l.015.03.003.007a.186.186 0 0 1-.005.148l-.002.003c-.918 1.78-2.267 3.198-4.164 4.34v.002c-3.84 2.32-3.894 5.03-3.875 5.377v.002c.002.05-.02.1-.044.13a.22.22 0 0 1-.133.055.284.284 0 0 1-.133-.036l-.01-.009-.007-.006-.005-.006-.04-.05a.275.275 0 0 1-.023-.041c-.01-.022-.009-.032-.009-.034v-.212c-.037-.74-.456-3.115-3.874-5.18-1.89-1.135-3.239-2.544-4.148-4.308l-.002-.003a.186.186 0 0 1-.005-.147.201.201 0 0 1 .122-.105h-.001c2.051-.661 3.922-1.977 5.73-3.984l.148-.157-.001-.001a18.005 18.005 0 0 0 2.093-2.515l.002-.002a.165.165 0 0 1 .138-.07Zm-.39 1.009c-.705.921-1.328 1.546-1.6 1.827l-.008.006-.006.007c-1.734 1.929-3.488 3.22-5.273 3.95l-.549.226.315.503c.87 1.394 2.069 2.526 3.617 3.467 1.92 1.159 2.924 2.417 3.448 3.45l.443.875.448-.874c.524-1.026 1.529-2.293 3.447-3.45v-.001c1.558-.942 2.765-2.091 3.636-3.493l.313-.504-.55-.223c-1.68-.682-3.31-1.837-4.852-3.475l.129-.116-.335-.372-.335-.37-.145.128a18.228 18.228 0 0 1-1.35-1.562l-.397-.516-.395.517Z"/><path d="M21.954 50.21a.678.678 0 0 1-.602-.363c-1.063-2.06-1.508-4.467-1.36-7.367 0-.643.009-1.912.297-3.52a.665.665 0 0 1 .544-.543c1.929-.354 3.676-1.014 5.192-1.97a7.02 7.02 0 0 0 .972-.75.674.674 0 0 1 .717-.123c.24.099.404.33.42.593.017.38.067.767.157 1.17.396 1.747 1.17 3.453 2.308 5.085a.669.669 0 0 1 0 .775c-.94 1.36-1.855 2.282-2.192 2.637l-.116.115c-1.903 2.118-3.972 3.552-6.123 4.244-.074.009-.14.017-.214.017Zm-.404-10.55a17.59 17.59 0 0 0-.198 2.67v.231c-.131 2.398.182 4.417.948 6.14 1.739-.676 3.379-1.88 4.978-3.66l.148-.156a18.098 18.098 0 0 0 1.78-2.077c-1.088-1.656-1.846-3.387-2.25-5.158-.008-.05-.024-.108-.033-.157-.057.041-.123.082-.181.124-1.525.947-3.272 1.64-5.192 2.043Zm6.23 5.827h.017-.017Zm22.975 5.902h-.017a.704.704 0 0 1-.502-.215c-.066-.074-1.83-1.953-6.049-.906-2.233.552-4.285.51-6.271-.116a.654.654 0 0 1-.42-.387.685.685 0 0 1 .024-.569c.948-1.83 1.335-4.005 1.195-6.642v-.23c0-.454-.008-1.657-.28-3.165a.675.675 0 0 1 .19-.602.675.675 0 0 1 .601-.19 17.48 17.48 0 0 0 3.123.273h.231c2.654.14 4.837-.256 6.667-1.203a.684.684 0 0 1 .569-.025.7.7 0 0 1 .387.42c.643 1.995.684 4.055.123 6.304-1.046 4.228.833 5.983.915 6.05.14.123.223.304.223.486a.64.64 0 0 1-.198.494.78.78 0 0 1-.511.223Zm-11.686-2.325c1.508.347 3.082.314 4.788-.115 2.258-.56 3.956-.379 5.151.008-.387-1.194-.569-2.892-.008-5.15.42-1.714.461-3.297.107-4.813-1.887.808-4.063 1.137-6.618 1.005-.51 0-1.425-.008-2.587-.156.156 1.178.156 2.085.156 2.472.14 2.687-.19 4.87-.989 6.75Z"/><path stroke="#0F0B08" d="M49.454 21.73a.187.187 0 0 1 .148.005l.003.002c1.78.918 3.197 2.268 4.34 4.164l.001.001c2.282 3.77 4.932 3.887 5.356 3.873v.003c.092 0 .133.027.15.043l.005.006.006.005a.184.184 0 0 1 .056.122.28.28 0 0 1-.037.134l-.008.01-.006.006-.006.004a.33.33 0 0 1-.09.064c-.024.01-.035.009-.035.009l-.022-.002h-.076a3.607 3.607 0 0 0-.53.052 4.974 4.974 0 0 0-1.29.416c-1.029.489-2.301 1.468-3.473 3.408-1.13 1.882-2.533 3.225-4.286 4.135a.438.438 0 0 1-.115.032.174.174 0 0 1-.07-.014.203.203 0 0 1-.101-.12c-.652-2.027-2.01-3.953-3.985-5.729l-.157-.148a18.495 18.495 0 0 0-2.513-2.1l-.004-.002-.029-.025a.17.17 0 0 1-.041-.113c0-.061.028-.112.07-.14l.004-.002a18.297 18.297 0 0 0 2.48-2.075l.157-.149c2.018-1.82 3.347-3.7 3.998-5.766l.002-.005a.156.156 0 0 1 .091-.1l.007-.004Zm-.034.949c-.732 1.803-2.009 3.547-3.843 5.188l-.006.005-.006.006c-.376.36-1.007.99-1.913 1.687l-.512.396.511.396c.925.716 1.56 1.335 1.837 1.604l.007.006.006.006c1.921 1.735 3.212 3.481 3.943 5.273l.225.55.504-.315c1.394-.87 2.526-2.069 3.467-3.617v-.002c1.158-1.919 2.417-2.922 3.449-3.446l.876-.444-.874-.447c-1.026-.524-2.293-1.529-3.45-3.447h-.001c-.943-1.56-2.092-2.757-3.492-3.635l-.504-.317-.224.553Z"/><path d="M43.58 40.032c-.355 0-.725-.008-1.096-.032-.643 0-1.912-.009-3.52-.297a.665.665 0 0 1-.543-.544c-.355-1.937-1.014-3.675-1.97-5.192a7.011 7.011 0 0 0-.75-.972.687.687 0 0 1-.123-.717.689.689 0 0 1 .593-.42c.38-.017.767-.058 1.17-.157 1.747-.396 3.453-1.17 5.085-2.308a.683.683 0 0 1 .775 0 19.108 19.108 0 0 1 2.637 2.2l-.338.61.453-.502c2.118 1.904 3.552 3.964 4.244 6.123a.685.685 0 0 1-.33.808c-1.804.939-3.864 1.4-6.287 1.4Zm-3.915-1.582c1.261.19 2.233.198 2.67.198h.231c2.406.124 4.417-.181 6.14-.948-.676-1.73-1.904-3.403-3.66-4.977l-.156-.148a17.687 17.687 0 0 0-2.085-1.78c-1.656 1.087-3.387 1.845-5.159 2.241-.05.008-.107.025-.156.033.04.058.082.124.123.181a15.808 15.808 0 0 1 2.052 5.2Zm9.845-15.888a.7.7 0 0 1-.313-.074c-1.829-.948-4.013-1.335-6.642-1.195h-.222c-.453 0-1.657.008-3.165.28a.69.69 0 0 1-.601-.19.675.675 0 0 1-.19-.601c.264-1.484.272-2.637.272-3.124v-.23c.14-2.654-.255-4.838-1.203-6.667a.685.685 0 0 1-.025-.569.698.698 0 0 1 .42-.387c1.995-.643 4.055-.684 6.305-.124 4.227 1.047 5.983-.832 6.049-.915a.658.658 0 0 1 .486-.222c.19.008.37.066.494.198.132.132.223.33.215.519a.704.704 0 0 1-.215.503c-.074.066-1.953 1.82-.906 6.048.552 2.234.51 4.286-.116 6.272a.655.655 0 0 1-.387.42.647.647 0 0 1-.255.058Zm-6.023-2.654c2.159 0 3.98.338 5.587 1.022.346-1.508.313-3.082-.115-4.788-.56-2.266-.38-3.956.008-5.15-1.195.387-2.893.568-5.15.008-1.715-.42-3.297-.462-4.814-.107.808 1.887 1.138 4.062 1.006 6.617 0 .511-.008 1.426-.157 2.588 1.179-.157 2.085-.157 2.473-.157a18.33 18.33 0 0 1 1.161-.033Z"/><path d="M32.553 24.465a.673.673 0 0 1-.676-.643 5.938 5.938 0 0 0-.157-1.17c-.395-1.747-1.17-3.453-2.307-5.085a.669.669 0 0 1 0-.774c.947-1.368 1.854-2.291 2.2-2.646l.61.346-.503-.453c1.904-2.118 3.964-3.552 6.123-4.244a.672.672 0 0 1 .808.33c1.063 2.06 1.508 4.466 1.36 7.367 0 .643-.009 1.912-.297 3.519a.666.666 0 0 1-.544.544c-1.937.354-3.675 1.014-5.192 1.97a7.01 7.01 0 0 0-.972.75.61.61 0 0 1-.453.189Zm-1.756-7.269c1.088 1.657 1.846 3.387 2.25 5.16.008.049.025.106.033.156.058-.041.123-.083.181-.116 1.533-.964 3.28-1.656 5.2-2.06.19-1.269.198-2.233.198-2.67v-.23c.132-2.399-.181-4.418-.956-6.14-1.747.676-3.379 1.879-4.978 3.667l-.148.149c-.28.288-.997 1.021-1.78 2.084Z"/><path stroke="#0F0B08" d="M30.008 23.506a6.497 6.497 0 0 1 6.488 6.489c-.008 3.573-2.917 6.488-6.488 6.488a6.497 6.497 0 0 1-6.488-6.488c0-3.573 2.908-6.489 6.488-6.489Zm6.137 6.488c-.01-3.381-2.753-6.136-6.137-6.136a6.145 6.145 0 0 0-6.137 6.137 6.145 6.145 0 0 0 6.137 6.136 6.145 6.145 0 0 0 6.137-6.136v-.001Z"/></g><defs><clipPath id="a"><path fill="#fff" d="M0 0h60v60H0z"/></clipPath></defs></svg>