<svg xmlns="http://www.w3.org/2000/svg" width="60" height="60" fill="none"><g fill="#0F0B08" clip-path="url(#a)"><path d="M18.335 43.12C11.231 43.12.81 30.956.372 30.444L0 30.003l.372-.438c.438-.521 10.867-12.678 17.963-12.678 3.168 0 6.178 1.282 8.477 3.605 2.506 2.54 3.92 6.013 3.87 9.52-.107 7.467-5.408 13.108-12.347 13.108ZM1.795 30.005c1.935 2.183 10.776 11.76 16.54 11.76 6.17 0 10.892-5.061 10.983-11.768.041-3.101-1.257-6.294-3.474-8.543-2.034-2.068-4.705-3.2-7.509-3.2-5.764-.009-14.605 9.56-16.54 11.751Z"/><path d="m30.003 60-.438-.372c-.521-.439-12.678-10.867-12.678-17.963 0-3.168 1.282-6.178 3.605-8.469 2.54-2.506 5.996-3.87 9.52-3.87 7.476.107 13.108 5.408 13.108 12.339 0 7.104-12.157 17.524-12.678 17.963l-.439.372Zm-.165-29.326c-3.052 0-6.186 1.29-8.403 3.482-2.067 2.034-3.2 4.705-3.2 7.509 0 5.764 9.577 14.605 11.76 16.548 2.183-1.943 11.76-10.784 11.76-16.548 0-6.17-5.061-10.892-11.768-10.983-.042-.008-.1-.008-.15-.008Z"/><path d="M41.665 43.12c-3.168 0-6.178-1.281-8.477-3.605-2.506-2.54-3.912-6.013-3.87-9.52.107-7.467 5.408-13.107 12.338-13.107 7.105 0 17.525 12.157 17.963 12.678l.372.438-.372.438c-.43.513-10.858 12.679-17.954 12.679Zm0-24.876c-6.17 0-10.892 5.061-10.983 11.768-.041 3.102 1.257 6.294 3.473 8.552 2.035 2.067 4.706 3.2 7.51 3.2 5.764 0 14.605-9.577 16.548-11.76-1.943-2.191-10.784-11.76-16.548-11.76Z"/><path d="M30.169 30.682h-.174c-7.476-.107-13.108-5.408-13.108-12.339C16.887 11.24 29.044.82 29.565.38l.438-.38.439.372C30.962.81 43.12 11.24 43.12 18.335c0 3.168-1.282 6.178-3.606 8.469-2.506 2.472-5.897 3.878-9.345 3.878Zm-.166-28.887C27.812 3.73 18.235 12.57 18.235 18.335c0 6.17 5.061 10.892 11.768 10.983 3.135.082 6.294-1.257 8.552-3.474 2.067-2.034 3.2-4.705 3.2-7.509.008-5.764-9.569-14.605-11.752-16.54Z"/></g><defs><clipPath id="a"><path fill="#fff" d="M0 0h60v60H0z"/></clipPath></defs></svg>