<svg xmlns="http://www.w3.org/2000/svg" width="50" height="50" fill="none"><path stroke="#0F0B08" stroke-linecap="round" stroke-linejoin="round" stroke-width="1.305" d="M25.077 49a19.2 19.2 0 0 1-19.2-19.2v-5.76a19.2 19.2 0 0 1 19.2 19.2V49Zm0 0v-5.76a19.2 19.2 0 0 1 19.2-19.2v5.76a19.2 19.2 0 0 1-19.2 19.2Z"/><path stroke="#0F0B08" stroke-linecap="round" stroke-linejoin="round" stroke-width="1.305" d="M44.276 24.04V10.6a19.2 19.2 0 0 0-19.2 19.2v13.44"/><path stroke="#0F0B08" stroke-linecap="round" stroke-linejoin="round" stroke-width="1.305" d="M5.877 24.04V10.6a19.2 19.2 0 0 1 19.2 19.2v13.44"/><path stroke="#0F0B08" stroke-linecap="round" stroke-linejoin="round" stroke-width="1.305" d="M14.53 12.657C17.305 4.886 25.076 1 25.076 1s7.771 3.886 10.56 11.66"/></svg>