<svg xmlns="http://www.w3.org/2000/svg" width="123" height="33" fill="none"><path stroke="#0F0B08" stroke-linecap="square" stroke-linejoin="round" stroke-width="1.061" d="M1.566 16.737C2.91 18.184 6.88 21.094 12 21.16c5.12.065 8.763-2.921 9.945-4.423M11.842 6.535a2.894 2.894 0 1 1 0 5.787 2.894 2.894 0 0 1 0-5.787ZM6.58 15.547h10.249M6.58 24.642h10.249"/><path fill="#0F0B08" d="M32.836 7.222c-.973 0-1.153.82-.692 1.613l4.868 8.3 5.046-8.402c.461-.743.461-1.511-.41-1.511v-.154h2.665v.154c-.564 0-1.128.82-1.666 1.716l-5.225 8.684v5.713c0 1.025.05 1.588.922 1.588V25H34.45v-.077c.87 0 .922-.563.922-1.588v-5.431l-5.354-9.043c-.564-.922-1.076-1.64-1.716-1.64v-.153h4.534v.154Zm15.982 4.252c3.51 0 6.148 2.946 6.148 6.917 0 3.92-2.562 6.763-6.097 6.763-3.587 0-6.174-2.87-6.174-6.814 0-3.971 2.587-6.866 6.123-6.866Zm.025.487c-2.51 0-4.099 2.46-4.099 6.327 0 3.894 1.614 6.379 4.125 6.379 2.485 0 4.047-2.46 4.047-6.328 0-3.893-1.588-6.378-4.073-6.378Zm13.581-.487c1.153 0 2.23.307 3.126.845l3.023-.87.05.05v1.384h-.05l-2.741-.384c1.178.82 1.946 2.024 1.946 3.432 0 2.434-2.356 4.253-5.226 4.253-1.255 0-2.382-.333-3.304-.922-.615.512-1.025 1.101-1.025 1.588 0 .692.897 1.076 2.792 1.178l3.869.23c2.51.155 3.74 1.154 3.74 2.998 0 2.844-2.946 4.97-6.814 4.97-3.1 0-5.406-1.358-5.406-3.484 0-1.23.794-2.306 2.383-3.125-1.153-.359-1.896-1.076-1.896-1.998 0-.82.615-1.666 1.998-2.613-1.025-.795-1.665-1.922-1.665-3.203 0-2.459 2.357-4.329 5.2-4.329Zm.052.487c-1.973 0-3.305 1.434-3.305 3.868 0 2.485 1.358 3.868 3.356 3.868 1.998 0 3.305-1.357 3.305-3.791 0-2.485-1.358-3.945-3.356-3.945Zm-3.203 11.784c-1.024.743-1.537 1.588-1.537 2.613 0 1.998 1.999 3.356 4.56 3.356 2.793 0 5.021-1.64 5.021-3.638 0-1.178-.768-1.793-2.459-1.896l-4.534-.282a6.088 6.088 0 0 1-1.05-.153Zm17.316-12.27c3.023 0 4.38 1.664 4.38 5.353v6.635c0 1.076.206 1.383.795 1.383V25H79.1v-3.381c-1.179 2.177-3.074 3.535-5.072 3.535-2.101 0-3.69-1.512-3.69-3.51 0-2.638 2.767-4.79 8.66-5.738-.103-2.69-1.05-3.92-2.947-3.92-1.947 0-3.612 1.332-4.585 3.664h-.154V13.6c1.204-1.332 3.177-2.126 5.277-2.126Zm2.408 9.247v-4.253c-4.534.795-6.609 2.665-6.609 5.098 0 1.614.922 2.588 2.306 2.588 1.665 0 3.33-1.332 4.303-3.433Zm4.654 1.306c.974 1.691 2.46 2.639 4.458 2.639 2.152 0 3.586-1.076 3.586-2.587 0-3.536-8.07-2.793-8.07-7.224 0-2.05 1.743-3.382 4.33-3.382 1.64 0 3.074.512 4.176 1.511V14.6h-.154c-1.127-1.844-2.306-2.638-3.894-2.638-1.742 0-3.125.948-3.125 2.203 0 3.048 8.044 2.408 8.044 7.147 0 2.383-2.05 3.843-4.919 3.843-1.87 0-3.407-.64-4.585-1.23v-1.896h.153Zm10.529-9.837v-.563h1.28V9.476l1.973-.333v2.485h4.996v.563h-4.996v9.223c0 1.998.564 2.869 1.819 2.869 1.127 0 2.664-.718 3.638-1.998l.128.076c-1.281 1.691-3.1 2.793-4.663 2.793-1.793 0-2.894-1.435-2.894-3.766v-9.197H94.18Zm10.011-3.74c0-.794.563-1.306 1.409-1.306.819 0 1.357.512 1.357 1.306s-.538 1.307-1.383 1.307-1.383-.513-1.383-1.307Zm.41 4.714c0-1.025-.18-1.383-.794-1.383v-.154h2.766v11.835c0 1.025.18 1.383.794 1.383V25h-3.56v-.154c.614 0 .794-.358.794-1.383V13.165Zm11.092-1.179c-2.587 0-4.304 2.383-4.304 6.072 0 3.791 1.819 6.25 4.612 6.25 2.254 0 4.201-1.614 4.739-4.022l.153.026c-.666 2.946-2.869 4.842-5.635 4.842-3.407 0-5.918-2.895-5.918-6.866 0-3.996 2.536-6.814 6.046-6.814 1.793 0 3.407.743 4.688 2.126v2.05h-.154c-1.05-2.485-2.408-3.664-4.227-3.664Z"/></svg>